<mxfile host="Electron" modified="2024-05-28T10:51:31.237Z" agent="Mozilla/5.0 (Windows NT 10.0; Win64; x64) AppleWebKit/537.36 (KHTML, like Gecko) draw.io/24.4.0 Chrome/120.0.6099.109 Electron/28.1.0 Safari/537.36" etag="IVxxRjQYrmPL8pntLNBf" version="24.4.0" type="device">
  <diagram name="Page-1" id="p5UipJxprQ3kxWchpc4j">
    <mxGraphModel dx="1313" dy="776" grid="1" gridSize="10" guides="1" tooltips="1" connect="1" arrows="1" fold="1" page="1" pageScale="1" pageWidth="1169" pageHeight="827" math="0" shadow="0">
      <root>
        <mxCell id="0" />
        <mxCell id="1" parent="0" />
        <mxCell id="vgIikGH2efNw5-rMD2Wz-15" style="edgeStyle=orthogonalEdgeStyle;rounded=0;orthogonalLoop=1;jettySize=auto;html=1;entryX=0;entryY=0.5;entryDx=0;entryDy=0;" edge="1" parent="1" source="vgIikGH2efNw5-rMD2Wz-1" target="vgIikGH2efNw5-rMD2Wz-2">
          <mxGeometry relative="1" as="geometry" />
        </mxCell>
        <mxCell id="vgIikGH2efNw5-rMD2Wz-1" value="F(x)" style="rounded=1;whiteSpace=wrap;html=1;" vertex="1" parent="1">
          <mxGeometry x="40" y="160" width="40" height="40" as="geometry" />
        </mxCell>
        <mxCell id="vgIikGH2efNw5-rMD2Wz-29" style="edgeStyle=orthogonalEdgeStyle;rounded=0;orthogonalLoop=1;jettySize=auto;html=1;entryX=0.5;entryY=0;entryDx=0;entryDy=0;" edge="1" parent="1" source="vgIikGH2efNw5-rMD2Wz-2" target="vgIikGH2efNw5-rMD2Wz-6">
          <mxGeometry relative="1" as="geometry">
            <Array as="points">
              <mxPoint x="220" y="240" />
              <mxPoint x="340" y="240" />
            </Array>
          </mxGeometry>
        </mxCell>
        <mxCell id="vgIikGH2efNw5-rMD2Wz-30" style="edgeStyle=orthogonalEdgeStyle;rounded=0;orthogonalLoop=1;jettySize=auto;html=1;" edge="1" parent="1" source="vgIikGH2efNw5-rMD2Wz-2" target="vgIikGH2efNw5-rMD2Wz-5">
          <mxGeometry relative="1" as="geometry" />
        </mxCell>
        <mxCell id="vgIikGH2efNw5-rMD2Wz-31" style="edgeStyle=orthogonalEdgeStyle;rounded=0;orthogonalLoop=1;jettySize=auto;html=1;" edge="1" parent="1" source="vgIikGH2efNw5-rMD2Wz-2" target="vgIikGH2efNw5-rMD2Wz-4">
          <mxGeometry relative="1" as="geometry" />
        </mxCell>
        <mxCell id="vgIikGH2efNw5-rMD2Wz-32" style="edgeStyle=orthogonalEdgeStyle;rounded=0;orthogonalLoop=1;jettySize=auto;html=1;" edge="1" parent="1" source="vgIikGH2efNw5-rMD2Wz-2" target="vgIikGH2efNw5-rMD2Wz-3">
          <mxGeometry relative="1" as="geometry">
            <Array as="points">
              <mxPoint x="220" y="240" />
              <mxPoint x="60" y="240" />
            </Array>
          </mxGeometry>
        </mxCell>
        <mxCell id="vgIikGH2efNw5-rMD2Wz-2" value="Multilevel DWT" style="rounded=1;whiteSpace=wrap;html=1;" vertex="1" parent="1">
          <mxGeometry x="160" y="160" width="120" height="40" as="geometry" />
        </mxCell>
        <mxCell id="vgIikGH2efNw5-rMD2Wz-3" value="D&lt;sub&gt;1&lt;/sub&gt;" style="rounded=1;whiteSpace=wrap;html=1;" vertex="1" parent="1">
          <mxGeometry x="40" y="280" width="40" height="40" as="geometry" />
        </mxCell>
        <mxCell id="vgIikGH2efNw5-rMD2Wz-18" style="edgeStyle=orthogonalEdgeStyle;rounded=0;orthogonalLoop=1;jettySize=auto;html=1;entryX=0.5;entryY=0;entryDx=0;entryDy=0;" edge="1" parent="1" source="vgIikGH2efNw5-rMD2Wz-4" target="vgIikGH2efNw5-rMD2Wz-7">
          <mxGeometry relative="1" as="geometry" />
        </mxCell>
        <mxCell id="vgIikGH2efNw5-rMD2Wz-4" value="D&lt;sub&gt;2&lt;/sub&gt;" style="rounded=1;whiteSpace=wrap;html=1;" vertex="1" parent="1">
          <mxGeometry x="120" y="280" width="40" height="40" as="geometry" />
        </mxCell>
        <mxCell id="vgIikGH2efNw5-rMD2Wz-5" value="D&lt;sub&gt;k&lt;/sub&gt;" style="rounded=1;whiteSpace=wrap;html=1;" vertex="1" parent="1">
          <mxGeometry x="200" y="280" width="40" height="40" as="geometry" />
        </mxCell>
        <mxCell id="vgIikGH2efNw5-rMD2Wz-20" style="edgeStyle=orthogonalEdgeStyle;rounded=0;orthogonalLoop=1;jettySize=auto;html=1;entryX=0.5;entryY=0;entryDx=0;entryDy=0;" edge="1" parent="1" source="vgIikGH2efNw5-rMD2Wz-6" target="vgIikGH2efNw5-rMD2Wz-12">
          <mxGeometry relative="1" as="geometry" />
        </mxCell>
        <mxCell id="vgIikGH2efNw5-rMD2Wz-6" value="&lt;span style=&quot;font-size: 10px;&quot;&gt;A&lt;sub&gt;k&lt;/sub&gt;&lt;/span&gt;" style="rounded=1;whiteSpace=wrap;html=1;" vertex="1" parent="1">
          <mxGeometry x="320" y="280" width="40" height="40" as="geometry" />
        </mxCell>
        <mxCell id="vgIikGH2efNw5-rMD2Wz-21" style="edgeStyle=orthogonalEdgeStyle;rounded=0;orthogonalLoop=1;jettySize=auto;html=1;entryX=0.5;entryY=0;entryDx=0;entryDy=0;" edge="1" parent="1" source="vgIikGH2efNw5-rMD2Wz-7" target="vgIikGH2efNw5-rMD2Wz-8">
          <mxGeometry relative="1" as="geometry" />
        </mxCell>
        <mxCell id="vgIikGH2efNw5-rMD2Wz-7" value="Noise Estimation (MAD)" style="rounded=1;whiteSpace=wrap;html=1;" vertex="1" parent="1">
          <mxGeometry x="40" y="360" width="200" height="40" as="geometry" />
        </mxCell>
        <mxCell id="vgIikGH2efNw5-rMD2Wz-22" style="edgeStyle=orthogonalEdgeStyle;rounded=0;orthogonalLoop=1;jettySize=auto;html=1;" edge="1" parent="1" source="vgIikGH2efNw5-rMD2Wz-8" target="vgIikGH2efNw5-rMD2Wz-9">
          <mxGeometry relative="1" as="geometry">
            <Array as="points">
              <mxPoint x="60" y="490" />
              <mxPoint x="60" y="490" />
            </Array>
          </mxGeometry>
        </mxCell>
        <mxCell id="vgIikGH2efNw5-rMD2Wz-23" style="edgeStyle=orthogonalEdgeStyle;rounded=0;orthogonalLoop=1;jettySize=auto;html=1;entryX=0.5;entryY=0;entryDx=0;entryDy=0;" edge="1" parent="1" source="vgIikGH2efNw5-rMD2Wz-8" target="vgIikGH2efNw5-rMD2Wz-10">
          <mxGeometry relative="1" as="geometry" />
        </mxCell>
        <mxCell id="vgIikGH2efNw5-rMD2Wz-24" style="edgeStyle=orthogonalEdgeStyle;rounded=0;orthogonalLoop=1;jettySize=auto;html=1;entryX=0.5;entryY=0;entryDx=0;entryDy=0;" edge="1" parent="1" source="vgIikGH2efNw5-rMD2Wz-8" target="vgIikGH2efNw5-rMD2Wz-11">
          <mxGeometry relative="1" as="geometry">
            <Array as="points">
              <mxPoint x="220" y="490" />
              <mxPoint x="220" y="490" />
            </Array>
          </mxGeometry>
        </mxCell>
        <mxCell id="vgIikGH2efNw5-rMD2Wz-8" value="Noise Thresholding (Shrinkage)" style="rounded=1;whiteSpace=wrap;html=1;" vertex="1" parent="1">
          <mxGeometry x="40" y="440" width="200" height="40" as="geometry" />
        </mxCell>
        <mxCell id="vgIikGH2efNw5-rMD2Wz-25" style="edgeStyle=orthogonalEdgeStyle;rounded=0;orthogonalLoop=1;jettySize=auto;html=1;" edge="1" parent="1" source="vgIikGH2efNw5-rMD2Wz-9" target="vgIikGH2efNw5-rMD2Wz-14">
          <mxGeometry relative="1" as="geometry">
            <Array as="points">
              <mxPoint x="60" y="600" />
              <mxPoint x="220" y="600" />
            </Array>
          </mxGeometry>
        </mxCell>
        <mxCell id="vgIikGH2efNw5-rMD2Wz-9" value="D&#39;&lt;sub&gt;1&lt;/sub&gt;" style="rounded=1;whiteSpace=wrap;html=1;" vertex="1" parent="1">
          <mxGeometry x="40" y="520" width="40" height="40" as="geometry" />
        </mxCell>
        <mxCell id="vgIikGH2efNw5-rMD2Wz-28" style="edgeStyle=orthogonalEdgeStyle;rounded=0;orthogonalLoop=1;jettySize=auto;html=1;" edge="1" parent="1" source="vgIikGH2efNw5-rMD2Wz-10" target="vgIikGH2efNw5-rMD2Wz-14">
          <mxGeometry relative="1" as="geometry" />
        </mxCell>
        <mxCell id="vgIikGH2efNw5-rMD2Wz-10" value="D&#39;&lt;sub&gt;2&lt;/sub&gt;" style="rounded=1;whiteSpace=wrap;html=1;" vertex="1" parent="1">
          <mxGeometry x="120" y="520" width="40" height="40" as="geometry" />
        </mxCell>
        <mxCell id="vgIikGH2efNw5-rMD2Wz-27" style="edgeStyle=orthogonalEdgeStyle;rounded=0;orthogonalLoop=1;jettySize=auto;html=1;" edge="1" parent="1" source="vgIikGH2efNw5-rMD2Wz-11" target="vgIikGH2efNw5-rMD2Wz-14">
          <mxGeometry relative="1" as="geometry" />
        </mxCell>
        <mxCell id="vgIikGH2efNw5-rMD2Wz-11" value="D&#39;&lt;sub&gt;k&lt;/sub&gt;" style="rounded=1;whiteSpace=wrap;html=1;" vertex="1" parent="1">
          <mxGeometry x="200" y="520" width="40" height="40" as="geometry" />
        </mxCell>
        <mxCell id="vgIikGH2efNw5-rMD2Wz-26" style="edgeStyle=orthogonalEdgeStyle;rounded=0;orthogonalLoop=1;jettySize=auto;html=1;entryX=0.5;entryY=0;entryDx=0;entryDy=0;" edge="1" parent="1" source="vgIikGH2efNw5-rMD2Wz-12" target="vgIikGH2efNw5-rMD2Wz-14">
          <mxGeometry relative="1" as="geometry">
            <Array as="points">
              <mxPoint x="340" y="600" />
              <mxPoint x="220" y="600" />
            </Array>
          </mxGeometry>
        </mxCell>
        <mxCell id="vgIikGH2efNw5-rMD2Wz-12" value="&lt;span style=&quot;font-size: 10px;&quot;&gt;A&lt;sub&gt;k&lt;/sub&gt;&lt;/span&gt;" style="rounded=1;whiteSpace=wrap;html=1;" vertex="1" parent="1">
          <mxGeometry x="320" y="520" width="40" height="40" as="geometry" />
        </mxCell>
        <mxCell id="vgIikGH2efNw5-rMD2Wz-13" value="F&#39;(x)" style="rounded=1;whiteSpace=wrap;html=1;" vertex="1" parent="1">
          <mxGeometry x="40" y="640" width="40" height="40" as="geometry" />
        </mxCell>
        <mxCell id="vgIikGH2efNw5-rMD2Wz-16" style="edgeStyle=orthogonalEdgeStyle;rounded=0;orthogonalLoop=1;jettySize=auto;html=1;entryX=1;entryY=0.5;entryDx=0;entryDy=0;" edge="1" parent="1" source="vgIikGH2efNw5-rMD2Wz-14" target="vgIikGH2efNw5-rMD2Wz-13">
          <mxGeometry relative="1" as="geometry" />
        </mxCell>
        <mxCell id="vgIikGH2efNw5-rMD2Wz-14" value="IDWT" style="rounded=1;whiteSpace=wrap;html=1;" vertex="1" parent="1">
          <mxGeometry x="160" y="640" width="120" height="40" as="geometry" />
        </mxCell>
        <mxCell id="vgIikGH2efNw5-rMD2Wz-17" style="edgeStyle=orthogonalEdgeStyle;rounded=0;orthogonalLoop=1;jettySize=auto;html=1;entryX=0.1;entryY=0;entryDx=0;entryDy=0;entryPerimeter=0;" edge="1" parent="1" source="vgIikGH2efNw5-rMD2Wz-3" target="vgIikGH2efNw5-rMD2Wz-7">
          <mxGeometry relative="1" as="geometry" />
        </mxCell>
        <mxCell id="vgIikGH2efNw5-rMD2Wz-19" style="edgeStyle=orthogonalEdgeStyle;rounded=0;orthogonalLoop=1;jettySize=auto;html=1;entryX=0.898;entryY=-0.02;entryDx=0;entryDy=0;entryPerimeter=0;" edge="1" parent="1" source="vgIikGH2efNw5-rMD2Wz-5" target="vgIikGH2efNw5-rMD2Wz-7">
          <mxGeometry relative="1" as="geometry" />
        </mxCell>
        <mxCell id="vgIikGH2efNw5-rMD2Wz-33" style="edgeStyle=orthogonalEdgeStyle;rounded=0;orthogonalLoop=1;jettySize=auto;html=1;entryX=0;entryY=0.5;entryDx=0;entryDy=0;fillColor=#dae8fc;strokeColor=#6c8ebf;" edge="1" parent="1" source="vgIikGH2efNw5-rMD2Wz-34" target="vgIikGH2efNw5-rMD2Wz-39">
          <mxGeometry relative="1" as="geometry" />
        </mxCell>
        <mxCell id="vgIikGH2efNw5-rMD2Wz-34" value="F(x)" style="rounded=1;whiteSpace=wrap;html=1;fillColor=#dae8fc;strokeColor=#6c8ebf;" vertex="1" parent="1">
          <mxGeometry x="440" y="160" width="40" height="40" as="geometry" />
        </mxCell>
        <mxCell id="vgIikGH2efNw5-rMD2Wz-35" style="edgeStyle=orthogonalEdgeStyle;rounded=0;orthogonalLoop=1;jettySize=auto;html=1;entryX=0.5;entryY=0;entryDx=0;entryDy=0;fillColor=#dae8fc;strokeColor=#6c8ebf;" edge="1" parent="1" source="vgIikGH2efNw5-rMD2Wz-39" target="vgIikGH2efNw5-rMD2Wz-45">
          <mxGeometry relative="1" as="geometry">
            <Array as="points">
              <mxPoint x="620" y="240" />
              <mxPoint x="740" y="240" />
            </Array>
          </mxGeometry>
        </mxCell>
        <mxCell id="vgIikGH2efNw5-rMD2Wz-36" style="edgeStyle=orthogonalEdgeStyle;rounded=0;orthogonalLoop=1;jettySize=auto;html=1;fillColor=#dae8fc;strokeColor=#6c8ebf;" edge="1" parent="1" source="vgIikGH2efNw5-rMD2Wz-39" target="vgIikGH2efNw5-rMD2Wz-43">
          <mxGeometry relative="1" as="geometry" />
        </mxCell>
        <mxCell id="vgIikGH2efNw5-rMD2Wz-37" style="edgeStyle=orthogonalEdgeStyle;rounded=0;orthogonalLoop=1;jettySize=auto;html=1;fillColor=#dae8fc;strokeColor=#6c8ebf;" edge="1" parent="1" source="vgIikGH2efNw5-rMD2Wz-39" target="vgIikGH2efNw5-rMD2Wz-42">
          <mxGeometry relative="1" as="geometry" />
        </mxCell>
        <mxCell id="vgIikGH2efNw5-rMD2Wz-38" style="edgeStyle=orthogonalEdgeStyle;rounded=0;orthogonalLoop=1;jettySize=auto;html=1;fillColor=#dae8fc;strokeColor=#6c8ebf;" edge="1" parent="1" source="vgIikGH2efNw5-rMD2Wz-39" target="vgIikGH2efNw5-rMD2Wz-40">
          <mxGeometry relative="1" as="geometry">
            <Array as="points">
              <mxPoint x="620" y="240" />
              <mxPoint x="460" y="240" />
            </Array>
          </mxGeometry>
        </mxCell>
        <mxCell id="vgIikGH2efNw5-rMD2Wz-39" value="Multilevel DWT" style="rounded=1;whiteSpace=wrap;html=1;fillColor=#dae8fc;strokeColor=#6c8ebf;" vertex="1" parent="1">
          <mxGeometry x="560" y="160" width="120" height="40" as="geometry" />
        </mxCell>
        <mxCell id="vgIikGH2efNw5-rMD2Wz-40" value="D&lt;sub&gt;1&lt;/sub&gt;" style="rounded=1;whiteSpace=wrap;html=1;fillColor=#dae8fc;strokeColor=#6c8ebf;" vertex="1" parent="1">
          <mxGeometry x="440" y="280" width="40" height="40" as="geometry" />
        </mxCell>
        <mxCell id="vgIikGH2efNw5-rMD2Wz-41" style="edgeStyle=orthogonalEdgeStyle;rounded=0;orthogonalLoop=1;jettySize=auto;html=1;entryX=0.5;entryY=0;entryDx=0;entryDy=0;fillColor=#dae8fc;strokeColor=#6c8ebf;" edge="1" parent="1" source="vgIikGH2efNw5-rMD2Wz-42" target="vgIikGH2efNw5-rMD2Wz-47">
          <mxGeometry relative="1" as="geometry" />
        </mxCell>
        <mxCell id="vgIikGH2efNw5-rMD2Wz-42" value="D&lt;sub&gt;2&lt;/sub&gt;" style="rounded=1;whiteSpace=wrap;html=1;fillColor=#dae8fc;strokeColor=#6c8ebf;" vertex="1" parent="1">
          <mxGeometry x="520" y="280" width="40" height="40" as="geometry" />
        </mxCell>
        <mxCell id="vgIikGH2efNw5-rMD2Wz-43" value="D&lt;sub&gt;k&lt;/sub&gt;" style="rounded=1;whiteSpace=wrap;html=1;fillColor=#dae8fc;strokeColor=#6c8ebf;" vertex="1" parent="1">
          <mxGeometry x="600" y="280" width="40" height="40" as="geometry" />
        </mxCell>
        <mxCell id="vgIikGH2efNw5-rMD2Wz-45" value="&lt;span style=&quot;font-size: 10px;&quot;&gt;A&lt;sub&gt;k&lt;/sub&gt;&lt;/span&gt;" style="rounded=1;whiteSpace=wrap;html=1;fillColor=#dae8fc;strokeColor=#6c8ebf;" vertex="1" parent="1">
          <mxGeometry x="720" y="280" width="40" height="40" as="geometry" />
        </mxCell>
        <mxCell id="vgIikGH2efNw5-rMD2Wz-46" style="edgeStyle=orthogonalEdgeStyle;rounded=0;orthogonalLoop=1;jettySize=auto;html=1;entryX=0.5;entryY=0;entryDx=0;entryDy=0;fillColor=#dae8fc;strokeColor=#6c8ebf;" edge="1" parent="1" source="vgIikGH2efNw5-rMD2Wz-47" target="vgIikGH2efNw5-rMD2Wz-51">
          <mxGeometry relative="1" as="geometry" />
        </mxCell>
        <mxCell id="vgIikGH2efNw5-rMD2Wz-47" value="Noise Estimation (MAD)" style="rounded=1;whiteSpace=wrap;html=1;fillColor=#dae8fc;strokeColor=#6c8ebf;" vertex="1" parent="1">
          <mxGeometry x="440" y="360" width="200" height="40" as="geometry" />
        </mxCell>
        <mxCell id="vgIikGH2efNw5-rMD2Wz-48" style="edgeStyle=orthogonalEdgeStyle;rounded=0;orthogonalLoop=1;jettySize=auto;html=1;fillColor=#dae8fc;strokeColor=#6c8ebf;" edge="1" parent="1" source="vgIikGH2efNw5-rMD2Wz-51" target="vgIikGH2efNw5-rMD2Wz-53">
          <mxGeometry relative="1" as="geometry">
            <Array as="points">
              <mxPoint x="460" y="490" />
              <mxPoint x="460" y="490" />
            </Array>
          </mxGeometry>
        </mxCell>
        <mxCell id="vgIikGH2efNw5-rMD2Wz-49" style="edgeStyle=orthogonalEdgeStyle;rounded=0;orthogonalLoop=1;jettySize=auto;html=1;entryX=0.5;entryY=0;entryDx=0;entryDy=0;fillColor=#dae8fc;strokeColor=#6c8ebf;" edge="1" parent="1" source="vgIikGH2efNw5-rMD2Wz-51" target="vgIikGH2efNw5-rMD2Wz-55">
          <mxGeometry relative="1" as="geometry" />
        </mxCell>
        <mxCell id="vgIikGH2efNw5-rMD2Wz-50" style="edgeStyle=orthogonalEdgeStyle;rounded=0;orthogonalLoop=1;jettySize=auto;html=1;entryX=0.5;entryY=0;entryDx=0;entryDy=0;fillColor=#dae8fc;strokeColor=#6c8ebf;" edge="1" parent="1" source="vgIikGH2efNw5-rMD2Wz-51" target="vgIikGH2efNw5-rMD2Wz-57">
          <mxGeometry relative="1" as="geometry">
            <Array as="points">
              <mxPoint x="620" y="490" />
              <mxPoint x="620" y="490" />
            </Array>
          </mxGeometry>
        </mxCell>
        <mxCell id="vgIikGH2efNw5-rMD2Wz-51" value="Noise Thresholding (Shrinkage)" style="rounded=1;whiteSpace=wrap;html=1;fillColor=#dae8fc;strokeColor=#6c8ebf;" vertex="1" parent="1">
          <mxGeometry x="440" y="440" width="200" height="40" as="geometry" />
        </mxCell>
        <mxCell id="vgIikGH2efNw5-rMD2Wz-52" style="edgeStyle=orthogonalEdgeStyle;rounded=0;orthogonalLoop=1;jettySize=auto;html=1;fillColor=#dae8fc;strokeColor=#6c8ebf;" edge="1" parent="1" source="vgIikGH2efNw5-rMD2Wz-53" target="vgIikGH2efNw5-rMD2Wz-62">
          <mxGeometry relative="1" as="geometry">
            <Array as="points">
              <mxPoint x="460" y="600" />
              <mxPoint x="620" y="600" />
            </Array>
          </mxGeometry>
        </mxCell>
        <mxCell id="vgIikGH2efNw5-rMD2Wz-53" value="D&#39;&lt;sub&gt;1&lt;/sub&gt;" style="rounded=1;whiteSpace=wrap;html=1;fillColor=#dae8fc;strokeColor=#6c8ebf;" vertex="1" parent="1">
          <mxGeometry x="440" y="520" width="40" height="40" as="geometry" />
        </mxCell>
        <mxCell id="vgIikGH2efNw5-rMD2Wz-54" style="edgeStyle=orthogonalEdgeStyle;rounded=0;orthogonalLoop=1;jettySize=auto;html=1;fillColor=#dae8fc;strokeColor=#6c8ebf;" edge="1" parent="1" source="vgIikGH2efNw5-rMD2Wz-55" target="vgIikGH2efNw5-rMD2Wz-62">
          <mxGeometry relative="1" as="geometry" />
        </mxCell>
        <mxCell id="vgIikGH2efNw5-rMD2Wz-55" value="D&#39;&lt;sub&gt;2&lt;/sub&gt;" style="rounded=1;whiteSpace=wrap;html=1;fillColor=#dae8fc;strokeColor=#6c8ebf;" vertex="1" parent="1">
          <mxGeometry x="520" y="520" width="40" height="40" as="geometry" />
        </mxCell>
        <mxCell id="vgIikGH2efNw5-rMD2Wz-56" style="edgeStyle=orthogonalEdgeStyle;rounded=0;orthogonalLoop=1;jettySize=auto;html=1;fillColor=#dae8fc;strokeColor=#6c8ebf;" edge="1" parent="1" source="vgIikGH2efNw5-rMD2Wz-57" target="vgIikGH2efNw5-rMD2Wz-62">
          <mxGeometry relative="1" as="geometry" />
        </mxCell>
        <mxCell id="vgIikGH2efNw5-rMD2Wz-57" value="D&#39;&lt;sub&gt;k&lt;/sub&gt;" style="rounded=1;whiteSpace=wrap;html=1;fillColor=#dae8fc;strokeColor=#6c8ebf;" vertex="1" parent="1">
          <mxGeometry x="600" y="520" width="40" height="40" as="geometry" />
        </mxCell>
        <mxCell id="vgIikGH2efNw5-rMD2Wz-58" style="edgeStyle=orthogonalEdgeStyle;rounded=0;orthogonalLoop=1;jettySize=auto;html=1;entryX=0.5;entryY=0;entryDx=0;entryDy=0;fillColor=#dae8fc;strokeColor=#6c8ebf;" edge="1" parent="1" source="vgIikGH2efNw5-rMD2Wz-59" target="vgIikGH2efNw5-rMD2Wz-62">
          <mxGeometry relative="1" as="geometry">
            <Array as="points">
              <mxPoint x="740" y="600" />
              <mxPoint x="620" y="600" />
            </Array>
          </mxGeometry>
        </mxCell>
        <mxCell id="vgIikGH2efNw5-rMD2Wz-59" value="&lt;span style=&quot;font-size: 10px;&quot;&gt;A&lt;sub&gt;k&lt;/sub&gt;&lt;/span&gt;" style="rounded=1;whiteSpace=wrap;html=1;fillColor=#dae8fc;strokeColor=#6c8ebf;" vertex="1" parent="1">
          <mxGeometry x="720" y="520" width="40" height="40" as="geometry" />
        </mxCell>
        <mxCell id="vgIikGH2efNw5-rMD2Wz-60" value="F&#39;(x)" style="rounded=1;whiteSpace=wrap;html=1;fillColor=#dae8fc;strokeColor=#6c8ebf;" vertex="1" parent="1">
          <mxGeometry x="440" y="640" width="40" height="40" as="geometry" />
        </mxCell>
        <mxCell id="vgIikGH2efNw5-rMD2Wz-61" style="edgeStyle=orthogonalEdgeStyle;rounded=0;orthogonalLoop=1;jettySize=auto;html=1;entryX=1;entryY=0.5;entryDx=0;entryDy=0;fillColor=#dae8fc;strokeColor=#6c8ebf;" edge="1" parent="1" source="vgIikGH2efNw5-rMD2Wz-62" target="vgIikGH2efNw5-rMD2Wz-60">
          <mxGeometry relative="1" as="geometry" />
        </mxCell>
        <mxCell id="vgIikGH2efNw5-rMD2Wz-62" value="IDWT" style="rounded=1;whiteSpace=wrap;html=1;fillColor=#dae8fc;strokeColor=#6c8ebf;" vertex="1" parent="1">
          <mxGeometry x="560" y="640" width="120" height="40" as="geometry" />
        </mxCell>
        <mxCell id="vgIikGH2efNw5-rMD2Wz-63" style="edgeStyle=orthogonalEdgeStyle;rounded=0;orthogonalLoop=1;jettySize=auto;html=1;entryX=0.1;entryY=0;entryDx=0;entryDy=0;entryPerimeter=0;fillColor=#dae8fc;strokeColor=#6c8ebf;" edge="1" parent="1" source="vgIikGH2efNw5-rMD2Wz-40" target="vgIikGH2efNw5-rMD2Wz-47">
          <mxGeometry relative="1" as="geometry" />
        </mxCell>
        <mxCell id="vgIikGH2efNw5-rMD2Wz-64" style="edgeStyle=orthogonalEdgeStyle;rounded=0;orthogonalLoop=1;jettySize=auto;html=1;entryX=0.898;entryY=-0.02;entryDx=0;entryDy=0;entryPerimeter=0;fillColor=#dae8fc;strokeColor=#6c8ebf;" edge="1" parent="1" source="vgIikGH2efNw5-rMD2Wz-43" target="vgIikGH2efNw5-rMD2Wz-47">
          <mxGeometry relative="1" as="geometry" />
        </mxCell>
        <mxCell id="vgIikGH2efNw5-rMD2Wz-68" style="edgeStyle=orthogonalEdgeStyle;rounded=0;orthogonalLoop=1;jettySize=auto;html=1;entryX=0.5;entryY=0;entryDx=0;entryDy=0;fillColor=#dae8fc;strokeColor=#6c8ebf;" edge="1" parent="1" source="vgIikGH2efNw5-rMD2Wz-66" target="vgIikGH2efNw5-rMD2Wz-59">
          <mxGeometry relative="1" as="geometry" />
        </mxCell>
        <mxCell id="vgIikGH2efNw5-rMD2Wz-66" value="0" style="strokeWidth=2;html=1;shape=mxgraph.flowchart.merge_or_storage;whiteSpace=wrap;fillColor=#dae8fc;strokeColor=#6c8ebf;" vertex="1" parent="1">
          <mxGeometry x="720" y="400" width="40" height="40" as="geometry" />
        </mxCell>
        <mxCell id="vgIikGH2efNw5-rMD2Wz-67" style="edgeStyle=orthogonalEdgeStyle;rounded=0;orthogonalLoop=1;jettySize=auto;html=1;entryX=0.5;entryY=0;entryDx=0;entryDy=0;entryPerimeter=0;fillColor=#dae8fc;strokeColor=#6c8ebf;" edge="1" parent="1" source="vgIikGH2efNw5-rMD2Wz-45" target="vgIikGH2efNw5-rMD2Wz-66">
          <mxGeometry relative="1" as="geometry" />
        </mxCell>
        <mxCell id="vgIikGH2efNw5-rMD2Wz-71" style="edgeStyle=orthogonalEdgeStyle;rounded=0;orthogonalLoop=1;jettySize=auto;html=1;entryX=0;entryY=0.5;entryDx=0;entryDy=0;fillColor=#f8cecc;strokeColor=#b85450;" edge="1" parent="1" source="vgIikGH2efNw5-rMD2Wz-72" target="vgIikGH2efNw5-rMD2Wz-77">
          <mxGeometry relative="1" as="geometry" />
        </mxCell>
        <mxCell id="vgIikGH2efNw5-rMD2Wz-72" value="F(x)" style="rounded=1;whiteSpace=wrap;html=1;fillColor=#f8cecc;strokeColor=#b85450;" vertex="1" parent="1">
          <mxGeometry x="840" y="160" width="40" height="40" as="geometry" />
        </mxCell>
        <mxCell id="vgIikGH2efNw5-rMD2Wz-73" style="edgeStyle=orthogonalEdgeStyle;rounded=0;orthogonalLoop=1;jettySize=auto;html=1;entryX=0.5;entryY=0;entryDx=0;entryDy=0;fillColor=#f8cecc;strokeColor=#b85450;" edge="1" parent="1" source="vgIikGH2efNw5-rMD2Wz-77" target="vgIikGH2efNw5-rMD2Wz-83">
          <mxGeometry relative="1" as="geometry">
            <Array as="points">
              <mxPoint x="1020" y="240" />
              <mxPoint x="1140" y="240" />
            </Array>
          </mxGeometry>
        </mxCell>
        <mxCell id="vgIikGH2efNw5-rMD2Wz-74" style="edgeStyle=orthogonalEdgeStyle;rounded=0;orthogonalLoop=1;jettySize=auto;html=1;fillColor=#f8cecc;strokeColor=#b85450;" edge="1" parent="1" source="vgIikGH2efNw5-rMD2Wz-77" target="vgIikGH2efNw5-rMD2Wz-81">
          <mxGeometry relative="1" as="geometry" />
        </mxCell>
        <mxCell id="vgIikGH2efNw5-rMD2Wz-75" style="edgeStyle=orthogonalEdgeStyle;rounded=0;orthogonalLoop=1;jettySize=auto;html=1;fillColor=#f8cecc;strokeColor=#b85450;" edge="1" parent="1" source="vgIikGH2efNw5-rMD2Wz-77" target="vgIikGH2efNw5-rMD2Wz-80">
          <mxGeometry relative="1" as="geometry" />
        </mxCell>
        <mxCell id="vgIikGH2efNw5-rMD2Wz-76" style="edgeStyle=orthogonalEdgeStyle;rounded=0;orthogonalLoop=1;jettySize=auto;html=1;fillColor=#f8cecc;strokeColor=#b85450;" edge="1" parent="1" source="vgIikGH2efNw5-rMD2Wz-77" target="vgIikGH2efNw5-rMD2Wz-78">
          <mxGeometry relative="1" as="geometry">
            <Array as="points">
              <mxPoint x="1020" y="240" />
              <mxPoint x="860" y="240" />
            </Array>
          </mxGeometry>
        </mxCell>
        <mxCell id="vgIikGH2efNw5-rMD2Wz-77" value="Multilevel DWT" style="rounded=1;whiteSpace=wrap;html=1;fillColor=#f8cecc;strokeColor=#b85450;" vertex="1" parent="1">
          <mxGeometry x="960" y="160" width="120" height="40" as="geometry" />
        </mxCell>
        <mxCell id="vgIikGH2efNw5-rMD2Wz-104" style="edgeStyle=orthogonalEdgeStyle;rounded=0;orthogonalLoop=1;jettySize=auto;html=1;fillColor=#f8cecc;strokeColor=#b85450;" edge="1" parent="1" source="vgIikGH2efNw5-rMD2Wz-78" target="vgIikGH2efNw5-rMD2Wz-85">
          <mxGeometry relative="1" as="geometry">
            <Array as="points">
              <mxPoint x="860" y="350" />
              <mxPoint x="860" y="350" />
            </Array>
          </mxGeometry>
        </mxCell>
        <mxCell id="vgIikGH2efNw5-rMD2Wz-78" value="D&lt;sub&gt;1&lt;/sub&gt;" style="rounded=1;whiteSpace=wrap;html=1;fillColor=#f8cecc;strokeColor=#b85450;" vertex="1" parent="1">
          <mxGeometry x="840" y="280" width="40" height="40" as="geometry" />
        </mxCell>
        <mxCell id="vgIikGH2efNw5-rMD2Wz-105" style="edgeStyle=orthogonalEdgeStyle;rounded=0;orthogonalLoop=1;jettySize=auto;html=1;fillColor=#f8cecc;strokeColor=#b85450;" edge="1" parent="1" source="vgIikGH2efNw5-rMD2Wz-80" target="vgIikGH2efNw5-rMD2Wz-85">
          <mxGeometry relative="1" as="geometry">
            <Array as="points">
              <mxPoint x="940" y="350" />
              <mxPoint x="940" y="350" />
            </Array>
          </mxGeometry>
        </mxCell>
        <mxCell id="vgIikGH2efNw5-rMD2Wz-80" value="D&lt;sub&gt;2&lt;/sub&gt;" style="rounded=1;whiteSpace=wrap;html=1;fillColor=#f8cecc;strokeColor=#b85450;" vertex="1" parent="1">
          <mxGeometry x="920" y="280" width="40" height="40" as="geometry" />
        </mxCell>
        <mxCell id="vgIikGH2efNw5-rMD2Wz-106" style="edgeStyle=orthogonalEdgeStyle;rounded=0;orthogonalLoop=1;jettySize=auto;html=1;fillColor=#f8cecc;strokeColor=#b85450;" edge="1" parent="1" source="vgIikGH2efNw5-rMD2Wz-81" target="vgIikGH2efNw5-rMD2Wz-85">
          <mxGeometry relative="1" as="geometry">
            <Array as="points">
              <mxPoint x="1020" y="350" />
              <mxPoint x="1020" y="350" />
            </Array>
          </mxGeometry>
        </mxCell>
        <mxCell id="vgIikGH2efNw5-rMD2Wz-81" value="D&lt;sub&gt;k&lt;/sub&gt;" style="rounded=1;whiteSpace=wrap;html=1;fillColor=#f8cecc;strokeColor=#b85450;" vertex="1" parent="1">
          <mxGeometry x="1000" y="280" width="40" height="40" as="geometry" />
        </mxCell>
        <mxCell id="vgIikGH2efNw5-rMD2Wz-107" style="edgeStyle=orthogonalEdgeStyle;rounded=0;orthogonalLoop=1;jettySize=auto;html=1;fillColor=#f8cecc;strokeColor=#b85450;" edge="1" parent="1" source="vgIikGH2efNw5-rMD2Wz-83" target="vgIikGH2efNw5-rMD2Wz-85">
          <mxGeometry relative="1" as="geometry">
            <Array as="points">
              <mxPoint x="1140" y="370" />
              <mxPoint x="1140" y="370" />
            </Array>
          </mxGeometry>
        </mxCell>
        <mxCell id="vgIikGH2efNw5-rMD2Wz-83" value="&lt;span style=&quot;font-size: 10px;&quot;&gt;A&lt;sub&gt;k&lt;/sub&gt;&lt;/span&gt;" style="rounded=1;whiteSpace=wrap;html=1;fillColor=#f8cecc;strokeColor=#b85450;" vertex="1" parent="1">
          <mxGeometry x="1120" y="280" width="40" height="40" as="geometry" />
        </mxCell>
        <mxCell id="vgIikGH2efNw5-rMD2Wz-84" style="edgeStyle=orthogonalEdgeStyle;rounded=0;orthogonalLoop=1;jettySize=auto;html=1;entryX=0.5;entryY=0;entryDx=0;entryDy=0;fillColor=#f8cecc;strokeColor=#b85450;" edge="1" parent="1" source="vgIikGH2efNw5-rMD2Wz-85" target="vgIikGH2efNw5-rMD2Wz-89">
          <mxGeometry relative="1" as="geometry" />
        </mxCell>
        <mxCell id="vgIikGH2efNw5-rMD2Wz-85" value="Noise Estimation (MAD)" style="rounded=1;whiteSpace=wrap;html=1;fillColor=#f8cecc;strokeColor=#b85450;" vertex="1" parent="1">
          <mxGeometry x="840" y="360" width="320" height="40" as="geometry" />
        </mxCell>
        <mxCell id="vgIikGH2efNw5-rMD2Wz-86" style="edgeStyle=orthogonalEdgeStyle;rounded=0;orthogonalLoop=1;jettySize=auto;html=1;fillColor=#f8cecc;strokeColor=#b85450;" edge="1" parent="1" source="vgIikGH2efNw5-rMD2Wz-89" target="vgIikGH2efNw5-rMD2Wz-91">
          <mxGeometry relative="1" as="geometry">
            <Array as="points">
              <mxPoint x="860" y="490" />
              <mxPoint x="860" y="490" />
            </Array>
          </mxGeometry>
        </mxCell>
        <mxCell id="vgIikGH2efNw5-rMD2Wz-87" style="edgeStyle=orthogonalEdgeStyle;rounded=0;orthogonalLoop=1;jettySize=auto;html=1;entryX=0.5;entryY=0;entryDx=0;entryDy=0;fillColor=#f8cecc;strokeColor=#b85450;" edge="1" parent="1" source="vgIikGH2efNw5-rMD2Wz-89" target="vgIikGH2efNw5-rMD2Wz-93">
          <mxGeometry relative="1" as="geometry">
            <Array as="points">
              <mxPoint x="940" y="490" />
              <mxPoint x="940" y="490" />
            </Array>
          </mxGeometry>
        </mxCell>
        <mxCell id="vgIikGH2efNw5-rMD2Wz-88" style="edgeStyle=orthogonalEdgeStyle;rounded=0;orthogonalLoop=1;jettySize=auto;html=1;entryX=0.5;entryY=0;entryDx=0;entryDy=0;fillColor=#f8cecc;strokeColor=#b85450;" edge="1" parent="1" source="vgIikGH2efNw5-rMD2Wz-89" target="vgIikGH2efNw5-rMD2Wz-95">
          <mxGeometry relative="1" as="geometry">
            <Array as="points">
              <mxPoint x="1020" y="490" />
              <mxPoint x="1020" y="490" />
            </Array>
          </mxGeometry>
        </mxCell>
        <mxCell id="vgIikGH2efNw5-rMD2Wz-103" style="edgeStyle=orthogonalEdgeStyle;rounded=0;orthogonalLoop=1;jettySize=auto;html=1;entryX=0.5;entryY=0;entryDx=0;entryDy=0;fillColor=#f8cecc;strokeColor=#b85450;" edge="1" parent="1" source="vgIikGH2efNw5-rMD2Wz-89" target="vgIikGH2efNw5-rMD2Wz-97">
          <mxGeometry relative="1" as="geometry">
            <Array as="points">
              <mxPoint x="1140" y="490" />
              <mxPoint x="1140" y="490" />
            </Array>
          </mxGeometry>
        </mxCell>
        <mxCell id="vgIikGH2efNw5-rMD2Wz-89" value="Noise Thresholding (Shrinkage)" style="rounded=1;whiteSpace=wrap;html=1;fillColor=#f8cecc;strokeColor=#b85450;" vertex="1" parent="1">
          <mxGeometry x="840" y="440" width="320" height="40" as="geometry" />
        </mxCell>
        <mxCell id="vgIikGH2efNw5-rMD2Wz-90" style="edgeStyle=orthogonalEdgeStyle;rounded=0;orthogonalLoop=1;jettySize=auto;html=1;fillColor=#f8cecc;strokeColor=#b85450;" edge="1" parent="1" source="vgIikGH2efNw5-rMD2Wz-91" target="vgIikGH2efNw5-rMD2Wz-100">
          <mxGeometry relative="1" as="geometry">
            <Array as="points">
              <mxPoint x="860" y="600" />
              <mxPoint x="1020" y="600" />
            </Array>
          </mxGeometry>
        </mxCell>
        <mxCell id="vgIikGH2efNw5-rMD2Wz-91" value="D&#39;&lt;sub&gt;1&lt;/sub&gt;" style="rounded=1;whiteSpace=wrap;html=1;fillColor=#f8cecc;strokeColor=#b85450;" vertex="1" parent="1">
          <mxGeometry x="840" y="520" width="40" height="40" as="geometry" />
        </mxCell>
        <mxCell id="vgIikGH2efNw5-rMD2Wz-92" style="edgeStyle=orthogonalEdgeStyle;rounded=0;orthogonalLoop=1;jettySize=auto;html=1;fillColor=#f8cecc;strokeColor=#b85450;" edge="1" parent="1" source="vgIikGH2efNw5-rMD2Wz-93" target="vgIikGH2efNw5-rMD2Wz-100">
          <mxGeometry relative="1" as="geometry" />
        </mxCell>
        <mxCell id="vgIikGH2efNw5-rMD2Wz-93" value="D&#39;&lt;sub&gt;2&lt;/sub&gt;" style="rounded=1;whiteSpace=wrap;html=1;fillColor=#f8cecc;strokeColor=#b85450;" vertex="1" parent="1">
          <mxGeometry x="920" y="520" width="40" height="40" as="geometry" />
        </mxCell>
        <mxCell id="vgIikGH2efNw5-rMD2Wz-94" style="edgeStyle=orthogonalEdgeStyle;rounded=0;orthogonalLoop=1;jettySize=auto;html=1;fillColor=#f8cecc;strokeColor=#b85450;" edge="1" parent="1" source="vgIikGH2efNw5-rMD2Wz-95" target="vgIikGH2efNw5-rMD2Wz-100">
          <mxGeometry relative="1" as="geometry" />
        </mxCell>
        <mxCell id="vgIikGH2efNw5-rMD2Wz-95" value="D&#39;&lt;sub&gt;k&lt;/sub&gt;" style="rounded=1;whiteSpace=wrap;html=1;fillColor=#f8cecc;strokeColor=#b85450;" vertex="1" parent="1">
          <mxGeometry x="1000" y="520" width="40" height="40" as="geometry" />
        </mxCell>
        <mxCell id="vgIikGH2efNw5-rMD2Wz-96" style="edgeStyle=orthogonalEdgeStyle;rounded=0;orthogonalLoop=1;jettySize=auto;html=1;entryX=0.5;entryY=0;entryDx=0;entryDy=0;fillColor=#f8cecc;strokeColor=#b85450;" edge="1" parent="1" source="vgIikGH2efNw5-rMD2Wz-97" target="vgIikGH2efNw5-rMD2Wz-100">
          <mxGeometry relative="1" as="geometry">
            <Array as="points">
              <mxPoint x="1140" y="600" />
              <mxPoint x="1020" y="600" />
            </Array>
          </mxGeometry>
        </mxCell>
        <mxCell id="vgIikGH2efNw5-rMD2Wz-97" value="&lt;span style=&quot;font-size: 10px;&quot;&gt;A&lt;sub&gt;k&lt;/sub&gt;&lt;/span&gt;" style="rounded=1;whiteSpace=wrap;html=1;fillColor=#f8cecc;strokeColor=#b85450;" vertex="1" parent="1">
          <mxGeometry x="1120" y="520" width="40" height="40" as="geometry" />
        </mxCell>
        <mxCell id="vgIikGH2efNw5-rMD2Wz-98" value="F&#39;(x)" style="rounded=1;whiteSpace=wrap;html=1;fillColor=#f8cecc;strokeColor=#b85450;" vertex="1" parent="1">
          <mxGeometry x="840" y="640" width="40" height="40" as="geometry" />
        </mxCell>
        <mxCell id="vgIikGH2efNw5-rMD2Wz-99" style="edgeStyle=orthogonalEdgeStyle;rounded=0;orthogonalLoop=1;jettySize=auto;html=1;entryX=1;entryY=0.5;entryDx=0;entryDy=0;fillColor=#f8cecc;strokeColor=#b85450;" edge="1" parent="1" source="vgIikGH2efNw5-rMD2Wz-100" target="vgIikGH2efNw5-rMD2Wz-98">
          <mxGeometry relative="1" as="geometry" />
        </mxCell>
        <mxCell id="vgIikGH2efNw5-rMD2Wz-100" value="IDWT" style="rounded=1;whiteSpace=wrap;html=1;fillColor=#f8cecc;strokeColor=#b85450;" vertex="1" parent="1">
          <mxGeometry x="960" y="640" width="120" height="40" as="geometry" />
        </mxCell>
        <mxCell id="vgIikGH2efNw5-rMD2Wz-108" value="Denoise" style="text;html=1;align=center;verticalAlign=middle;whiteSpace=wrap;rounded=0;fontStyle=1;fontSize=20;" vertex="1" parent="1">
          <mxGeometry x="40" y="80" width="320" height="40" as="geometry" />
        </mxCell>
        <mxCell id="vgIikGH2efNw5-rMD2Wz-109" value="Denoise 2" style="text;html=1;align=center;verticalAlign=middle;whiteSpace=wrap;rounded=0;fontStyle=1;fontSize=20;" vertex="1" parent="1">
          <mxGeometry x="440" y="80" width="320" height="40" as="geometry" />
        </mxCell>
        <mxCell id="vgIikGH2efNw5-rMD2Wz-110" value="Denoise 3" style="text;html=1;align=center;verticalAlign=middle;whiteSpace=wrap;rounded=0;fontStyle=1;fontSize=20;" vertex="1" parent="1">
          <mxGeometry x="840" y="80" width="320" height="40" as="geometry" />
        </mxCell>
      </root>
    </mxGraphModel>
  </diagram>
</mxfile>
